<svg width="20" height="20" viewBox="0 0 20 20" fill="none" xmlns="http://www.w3.org/2000/svg">
<path d="M15.68 7.96364C16.16 7.47273 16.16 6.81818 15.68 6.32727C15.52 6.16364 15.2 6 14.88 6C14.56 6 14.24 6.16364 14.08 6.32727L8.31999 12.2182L5.91999 9.6C5.75999 9.43636 5.43999 9.27273 5.11999 9.27273C4.79999 9.27273 4.47999 9.43636 4.31999 9.6C3.83999 10.0909 3.83999 10.7455 4.31999 11.2364L7.51999 14.5091C7.67999 14.6727 7.99999 14.8364 8.31999 14.8364C8.63999 14.8364 8.95999 14.6727 9.11999 14.5091L15.68 7.96364Z" fill="currentColor"/>
</svg>
