<svg width="10" height="10" viewBox="0 0 10 10" fill="none" xmlns="http://www.w3.org/2000/svg">
<path d="M5 7.77779C4.85238 7.77726 4.71092 7.71856 4.60632 7.61442L0.14952 3.15886C0.0511134 3.05329 -0.00245966 2.91364 8.67922e-05 2.76936C0.00263324 2.62507 0.0611003 2.48741 0.163171 2.38536C0.265241 2.28332 0.402945 2.22487 0.547272 2.22232C0.691598 2.21978 0.831279 2.27334 0.936887 2.37172L5 6.4337L9.06311 2.37171C9.16872 2.27334 9.3084 2.21978 9.45273 2.22232C9.59705 2.22487 9.73476 2.28332 9.83683 2.38536C9.9389 2.4874 9.99737 2.62507 9.99991 2.76936C10.0025 2.91364 9.94889 3.05329 9.85048 3.15886L5.39368 7.61442C5.28908 7.71856 5.14762 7.77726 5 7.77779Z" fill="currentColor"/>
</svg>
